/* XPM */ 
static const unsigned char * scintilla_small_xpm[] = {
"24 24 184 2",
"  	c None",
"! 	c black",
"# 	c #565656",
"$ 	c #5D5D5D",
"% 	c #626262",
"& 	c #5A5A59",
"' 	c #5B5B5B",
"( 	c #5A5A5A",
") 	c #535353",
"* 	c #575757",
"+ 	c #474747",
", 	c #616161",
"- 	c #5F5F5F",
". 	c #626263",
"0 	c #606060",
"1 	c #636363",
"2 	c #545454",
"3 	c #505050",
"4 	c #7E7E7E",
"5 	c #6E6E6E",
"6 	c #7A7A7A",
"7 	c #5C5C5C",
"8 	c #737374",
"9 	c #696969",
": 	c #666666",
"; 	c #525252",
"< 	c #6A6A6A",
"= 	c #69696A",
"> 	c #828282",
"? 	c #4E4E4E",
"@ 	c #A5A5A5",
"A 	c #434343",
"B 	c #717171",
"C 	c #777777",
"D 	c #555555",
"E 	c #6C6C6C",
"F 	c #656565",
"G 	c #5E5E5E",
"H 	c #8F8F8F",
"I 	c #3C3C3C",
"J 	c #CBCBCB",
"K 	c #B2B2B2",
"L 	c #424242",
"M 	c #737373",
"N 	c #858585",
"O 	c #525251",
"P 	c #5B5B5A",
"Q 	c #6D6D6D",
"R 	c #4D4D4D",
"S 	c #898989",
"T 	c #C5C5C6",
"U 	c #7F7F7F",
"V 	c #C7C7C7",
"W 	c #323232",
"X 	c #7D7D7D",
"Y 	c #C0C0C1",
"Z 	c #4F4F4F",
"[ 	c #8D8D8E",
"] 	c #818182",
"^ 	c #515151",
"_ 	c #767675",
"` 	c #6B6B6C",
"a 	c #A8A8A8",
"b 	c #393939",
"c 	c #9D9D9D",
"d 	c #A2A2A3",
"e 	c #232323",
"f 	c #B5B5B5",
"g 	c #C3C3C4",
"h 	c #2D2D2D",
"i 	c #5D5D5E",
"j 	c #BEBEBE",
"k 	c #888888",
"l 	c #454545",
"m 	c #707071",
"n 	c #787878",
"o 	c #414141",
"p 	c #262626",
"q 	c #79797A",
"r 	c #4B4B4B",
"s 	c #9F9F9F",
"t 	c #E4E4E4",
"u 	c #292929",
"v 	c #B2B2B3",
"w 	c #C9C9C9",
"x 	c #373737",
"y 	c #3B3B3B",
"z 	c #9A9A9A",
"{ 	c #A3A3A4",
"| 	c #707070",
"} 	c #585858",
"~ 	c #6B6B6B",
" !	c #383838",
"!!	c #787877",
"#!	c #D3D3D3",
"$!	c #1D1D1D",
"%!	c #646464",
"&!	c #EDEDED",
"'!	c #212121",
"(!	c #D6D6D6",
")!	c #595959",
"*!	c #202020",
"+!	c #686868",
",!	c #969696",
"-!	c #343434",
".!	c #3E3E3E",
"0!	c #282828",
"1!	c #C0C0C0",
"2!	c #909090",
"3!	c #222222",
"4!	c #EAEAEA",
"5!	c #2B2B2B",
"6!	c #848484",
"7!	c #DEDEDE",
"8!	c #2C2C2C",
"9!	c #404040",
":!	c #767677",
";!	c #868687",
"<!	c #323233",
"=!	c #676767",
">!	c #1C1C1C",
"?!	c #191919",
"@!	c #494949",
"A!	c #B4B4B4",
"B!	c #4E4E4F",
"C!	c #E7E7E8",
"D!	c #303030",
"E!	c #979797",
"F!	c #F0F0F0",
"G!	c #7B7B7B",
"H!	c #3D3D3D",
"I!	c #BBBBBB",
"J!	c #ADADAD",
"K!	c #525253",
"L!	c #3D3D3E",
"M!	c #2A2A2A",
"N!	c #CDCDCC",
"O!	c #808080",
"P!	c #F2F2F2",
"Q!	c #252525",
"R!	c #EFEFEF",
"S!	c #A4A4A4",
"T!	c #8E8E8F",
"U!	c #A5A5A6",
"V!	c #89898A",
"W!	c #242425",
"X!	c #3A3A3A",
"Y!	c #BCBCBC",
"Z!	c #ECECEC",
"[!	c #2F2F2F",
"]!	c #D9D9DA",
"^!	c #4C4C4C",
"_!	c #747474",
"`!	c #9E9EA0",
"a!	c #313131",
"b!	c #3F3F3F",
"c!	c #6F6F6F",
"d!	c #D2D2D2",
"e!	c #8D8D8D",
"f!	c #818181",
"g!	c #EEEEEE",
"h!	c #919191",
"i!	c #A0A0A1",
"j!	c #BFBFBF",
"k!	c #656566",
"l!	c #878787",
"m!	c #4A4A4A",
"n!	c #444444",
"o!	c #363636",
"p!	c #C6C6C6",
"q!	c #757575",
"r!	c #E1E1E2",
"s!	c #646463",
"t!	c #A8A8A9",
"u!	c #BEBEBF",
"v!	c #8A8A8A",
"w!	c #616160",
"x!	c #A8A8AA",
"y!	c #313130",
"z!	c #727272",
"{!	c #474746",
"|!	c #353535",
"}!	c #484848",
"~!	c #2E2E2E",
"                # $ % & ' ( ) #                 ",
"            * + , - - . 0 1 * * 2 3             ",
"          4 , 5 0 6 7 8 9 ) : ' ; # (           ",
"        ' ) < = > ? @ A B C D E F 2 * *         ",
"      2 < G H I J + 5 K L M N O P Q , R )       ",
"    F 2 S L T L U V W X Y Z R [ ] Z 2 % ^ G     ",
"  _ ` D a b c d e f g h i j k l m n D o # D p   ",
"  7 q r s 4 L t M u v w x y z { ? y | F L } ~   ",
" !< !!Q ' #!$!%!&!^ '!s (!)!*!+!,!n -!3 E 9 .!  ",
"x B G @ 0!1!2!3!2!4!)!5!6!7!X 8!9!:!;!' <!( =!>!",
"?!6 @!A!% B!C!E D!E!F!G!H!< I!J!K!D!R | N Z 0!L!",
"M!: %!9 N!D!O!P!F Q!U R!S!; @!T!U!V!o -!( H l W!",
"+ X!8 M!Y!{ e O!Z!Q [!E ]!j 5 ^!< _!`!S 9!a!b!D!",
"y 9!Z c!R d!e!'!f!g!h!9!^ i!j!2!K!K!k!l!+!m!-!u ",
"[!n!o!F ; ; p!q!M!5 r!A!s!Z =!t!u!. Z 2 ; r W h ",
"y I R m!X .!+ v!w!X!B!x!U!1 # ; % 1 ( 9!o!y!5!  ",
"   !+ 2 + M r L z!F r H!7 s!* Z ^!) l W W -!0!  ",
"  b!X!3 m!n!Q $ + =!: ; {!l 2 2 Z @!m!; 9!5!I   ",
"    I L ; R @!q!} .!r D ^ Z + r l -!W -!|!W     ",
"      H!b!' , 3 1 % r 3 2 ? ^ + o ; I h [!      ",
"        L 9!7 , R + * ^ Z ^!+ + |!L b!W         ",
"          .!y b!D ^!n!}!^!R A m! !|!p           ",
"            I }!9!l o o }!X!x -!A [!            ",
"                  h p Q!~!8!W                   "};