/* XPM */ 
static const unsigned char * ledbargraph_xpm[] = {
"22 22 10 1",
" 	c None",
"!	c black",
"#	c #333366",
"$	c #454545",
"%	c #1F1F1F",
"&	c #F00000",
"'	c #7C0000",
"(	c #9B9B00",
")	c #009900",
"*	c #121212",
"                      ",
"                      ",
"                      ",
"                      ",
"######################",
"#$$$$$$$$$$$$$$$$$$%%#",
"#$&&$''$((%((%))%))%%#",
"#$&&$''%((%((%))%))%*#",
"#$&&$''$((%((%))%))%%#",
"#$&&$''%((%((%))%))%*#",
"#%&&%''%((%((%))%))%*#",
"#%&&%''*((*((*))*))**#",
"#%&&%''*((*((*))*))**#",
"#%&&%''*((*((*))*))**#",
"#%&&%''*((*((*))*))**#",
"#********************#",
"######################",
"                      ",
"                      ",
"                      ",
"                      ",
"                      "};